# xmcd
#
# Track frame offsets:
#	150
#	21229
#	40740
#	58990
#	78040
#	98159
#	112942
#	134621
#	153137
#	170346
#
# Disc length: 2490 seconds
#
# Revision: 3
# Processed by: cddbd v1.5.2PL0 Copyright (c) Steve Scherf et al.
# Submitted via: EasyCDDAExtractor 12.1.0.1
#
DISCID=7409b80a
DTITLE=Anders Norman - Easy Street
DYEAR=2010
DGENRE=Pop
TTITLE0=Love Me As I Am
TTITLE1=End With A Kiss
TTITLE2=Easy Street
TTITLE3=Who I Am
TTITLE4=My Little Girl
TTITLE5=Rocking America
TTITLE6=Change The World
TTITLE7=More Than Friends
TTITLE8=The Sound Of Your Love
TTITLE9=Live Before We Die
EXTD=
EXTT0=
EXTT1=
EXTT2=
EXTT3=
EXTT4=
EXTT5=
EXTT6=
EXTT7=
EXTT8=
EXTT9=
PLAYORDER=
